<svg width="232" height="45" viewBox="0 0 232 45" fill="none" xmlns="http://www.w3.org/2000/svg">
<path d="M41.7213 31.7631C41.7213 33.9259 41.2691 35.8972 40.3568 37.6785C39.7689 38.839 38.9883 39.9184 38.0124 40.912C35.5402 43.4397 32.5477 44.7012 29.0269 44.7012H14.0038V43.5228C14.0038 40.266 16.6071 37.6253 19.8192 37.6253H29.0269C30.6195 37.6253 31.9795 37.0531 33.1113 35.9052C34.2432 34.7574 34.8075 33.3775 34.8075 31.7631C34.8075 31.3617 34.7715 30.9762 34.7033 30.6026C34.4909 29.4787 33.9634 28.485 33.1107 27.6203C31.9781 26.4718 30.6182 25.9002 29.0262 25.9002H14.0032V25.1234C14.0032 21.6783 16.796 18.8855 20.2411 18.8855H24.3729C25.9655 18.8855 27.3294 18.3132 28.4573 17.1654C29.5899 16.0175 30.1575 14.6177 30.1575 12.9581C30.1575 11.2985 29.5892 9.96386 28.4573 8.816C27.3294 7.66748 25.9649 7.09589 24.3729 7.09589H12.8064C11.2138 7.09589 9.85384 7.66815 8.72197 8.816C7.88175 9.66809 7.3417 10.6664 7.08937 11.8142C7.04546 12.1958 7.02514 12.5773 7.02514 12.9581V24.7058C7.02514 27.9626 4.42189 30.6033 1.20978 30.6033H0.0490723V12.9581C0.0490723 9.3876 1.28515 6.3528 3.75798 3.84574C4.76598 2.83945 5.8546 2.03589 7.02645 1.43571C8.77047 0.534442 10.6993 0.0844727 12.8077 0.0844727H24.3742C27.895 0.0844727 30.8994 1.33801 33.3958 3.84574C35.8883 6.3528 37.1361 9.3876 37.1361 12.9581V13.4692L37.0719 13.66V14.2362C37.0719 14.3213 37.0477 14.4024 37.0077 14.4875C37.0077 14.7434 36.9874 14.9986 36.9435 15.2545C36.9035 15.3396 36.8832 15.4047 36.8832 15.4452C36.8832 15.5303 36.8589 15.6154 36.8189 15.7011C36.8189 15.7862 36.7986 15.8713 36.7547 15.957C36.7547 16.0421 36.7344 16.1272 36.6944 16.2129C36.6505 16.3831 36.6066 16.5293 36.5666 16.6589C36.5266 16.8696 36.4624 17.1049 36.3785 17.3568C36.3346 17.4458 36.3143 17.507 36.3143 17.5475C36.2743 17.6366 36.2304 17.7177 36.1904 17.8034C36.1465 17.933 36.0862 18.0832 36.0023 18.2494C35.9584 18.3345 35.9381 18.3996 35.9381 18.4402C35.8942 18.5292 35.8542 18.6103 35.8142 18.6961C35.7408 18.8051 35.6864 18.9107 35.6451 19.0184C35.6051 19.1041 35.5402 19.2444 35.5003 19.3301C35.2879 19.6718 35.0788 19.9935 34.8704 20.2906C36.9231 21.3985 38.5793 22.9684 39.8351 25.0089C40.8916 26.7211 41.5037 28.5874 41.6715 30.604C41.7036 30.9855 41.7193 31.371 41.7193 31.7644L41.7213 31.7631Z" fill="#FE6D02"/>
<path fill-rule="evenodd" clip-rule="evenodd" d="M7.13335 40.7114C7.13335 42.6677 5.54542 44.2557 3.59329 44.2557C1.64116 44.2557 0.0490723 42.6677 0.0490723 40.7114C0.0490723 38.7551 1.637 37.1714 3.59329 37.1714C5.54959 37.1714 7.13335 38.7551 7.13335 40.7114Z" fill="#5953F3"/>
<path d="M75.8095 28.3008C75.8514 28.6819 75.8734 29.0637 75.8734 29.4448V44.7013H71.214C69.8943 44.7013 69.1076 43.8966 68.8527 42.2859C66.3842 43.8966 63.6396 44.7013 60.6187 44.7013C56.3633 44.7013 52.7462 43.2185 49.7679 40.251C46.9167 37.3697 45.428 33.7672 45.3002 29.4448C45.428 25.1649 46.9281 21.5942 49.7998 18.7334C52.6723 15.8732 56.2562 14.3792 60.5548 14.252C64.8948 14.3375 68.5113 15.8209 71.4057 18.7022C74.0006 21.2873 75.4688 24.4868 75.8095 28.3014C76.1503 32.116 75.8095 28.3008 75.8095 28.3008ZM60.7465 37.6454C63.0013 37.5612 64.8841 36.7665 66.3956 35.2619C67.9057 33.7579 68.7249 31.8834 68.8527 29.6357C68.8094 27.2628 68.0008 25.2716 66.4275 23.6602C64.8096 22.0502 62.8742 21.2442 60.6187 21.2442C58.3632 21.2442 56.3633 22.0496 54.7467 23.6602C53.1721 25.2709 52.3848 27.1991 52.3848 29.4448C52.3848 31.6905 53.1714 33.683 54.7467 35.293C56.3633 36.8613 58.3626 37.6447 60.7465 37.6447V37.6454Z" fill="#191919"/>
<path d="M95.4147 14.3156V21.372C95.0314 21.2871 94.6475 21.2447 94.2642 21.2447C91.9631 21.2447 90.002 22.05 88.3829 23.6607C86.8051 25.2714 86.0178 27.1995 86.0178 29.4451V44.7013H78.9213V29.4451C78.9213 26.7753 79.5606 24.3182 80.8391 22.0713C82.1176 19.8256 83.8441 18.0247 86.0178 16.6679C88.4469 15.0579 91.1952 14.252 94.2642 14.252C94.6481 14.252 95.0321 14.2738 95.4147 14.3156Z" fill="#191919"/>
<path d="M128.884 28.3008C128.926 28.6819 128.948 29.0637 128.948 29.4448V44.7013H124.289C122.969 44.7013 122.183 43.8966 121.928 42.2859C119.459 43.8966 116.715 44.7013 113.694 44.7013C109.438 44.7013 105.821 43.2185 102.843 40.251C99.9917 37.3697 98.5029 33.7672 98.3751 29.4448C98.5029 25.1649 100.003 21.5942 102.875 18.7334C105.747 15.8732 109.331 14.3792 113.63 14.252C117.97 14.3375 121.586 15.8209 124.481 18.7022C127.076 21.2873 128.544 24.4868 128.884 28.3014C129.225 32.116 128.884 28.3008 128.884 28.3008ZM113.821 37.6454C116.076 37.5612 117.959 36.7665 119.471 35.2619C120.981 33.7579 121.8 31.8834 121.928 29.6357C121.884 27.2628 121.076 25.2716 119.502 23.6602C117.885 22.0502 115.949 21.2442 113.694 21.2442C111.438 21.2442 109.438 22.0496 107.822 23.6602C106.247 25.2709 105.46 27.1991 105.46 29.4448C105.46 31.6905 106.246 33.683 107.822 35.293C109.438 36.8613 111.438 37.6447 113.821 37.6447V37.6454Z" fill="#191919"/>
<path d="M162.446 42.6616C160.92 44.022 159.256 44.7012 157.456 44.7012C155.655 44.7012 154.012 44.022 152.529 42.6616L144.329 34.4391L138.544 40.1759L135.938 42.7892C135.938 42.8317 135.916 42.8523 135.874 42.8523C135.069 43.5328 134.221 43.6598 133.331 43.2351C132.442 42.8111 131.996 42.1093 131.996 41.1316V7.09603C131.996 5.18397 132.684 3.53775 134.062 2.15604C135.439 0.775659 137.103 0.0844727 139.052 0.0844727V29.7224L139.37 29.4041L144.328 24.4322L152.528 16.2104C154.011 14.8506 155.653 14.1707 157.455 14.1707C159.257 14.1707 160.919 14.8513 162.445 16.2104L149.286 29.4041L162.445 42.6616H162.446Z" fill="#191919"/>
<path d="M195.915 28.3008C195.957 28.6819 195.979 29.0637 195.979 29.4448V44.7013H191.32C190 44.7013 189.213 43.8966 188.958 42.2859C186.49 43.8966 183.745 44.7013 180.725 44.7013C176.469 44.7013 172.852 43.2185 169.874 40.251C167.023 37.3697 165.534 33.7672 165.406 29.4448C165.534 25.1649 167.034 21.5942 169.906 18.7334C172.778 15.8732 176.362 14.3792 180.661 14.252C185.001 14.3375 188.617 15.8209 191.511 18.7022C194.106 21.2873 195.575 24.4868 195.915 28.3014C196.256 32.116 195.915 28.3008 195.915 28.3008ZM180.852 37.6454C183.107 37.5612 184.99 36.7665 186.501 35.2619C188.011 33.7579 188.831 31.8834 188.958 29.6357C188.915 27.2628 188.107 25.2716 186.533 23.6602C184.915 22.0502 182.98 21.2442 180.725 21.2442C178.469 21.2442 176.469 22.0496 174.853 23.6602C173.278 25.2709 172.491 27.1991 172.491 29.4448C172.491 31.6905 173.277 33.683 174.853 35.293C176.469 36.8613 178.468 37.6447 180.852 37.6447V37.6454Z" fill="#191919"/>
<path d="M202.8 4.78847C202.271 6.26341 202.352 12.987 202.359 14.5299L199.029 14.5277L199.027 21.6353L202.36 21.6333L202.348 26.9978C202.343 28.8597 202.254 31.7868 202.523 33.5569C202.753 35.0971 203.262 37.3943 204.646 39.389C206.561 42.1496 208.483 43.4053 211.738 44.3021C213.354 44.6201 214.701 44.7517 216.026 44.6838H221.19V37.2052H216.026C213.421 37.2804 210.933 36.2668 209.799 33.1542C209.171 31.4313 209.42 28.3983 209.426 26.4839L209.418 21.6261L221.229 21.6221C221.229 17.7024 218.051 14.5249 214.132 14.5259L209.418 14.5272L209.413 0.0844727C206.001 0.375207 204.204 1.39114 202.8 4.78847Z" fill="#191919"/>
<path fill-rule="evenodd" clip-rule="evenodd" d="M231.379 41.1043C231.379 43.0897 229.768 44.7011 227.787 44.7011C225.806 44.7011 224.19 43.0897 224.19 41.1043C224.19 39.119 225.802 37.5117 227.787 37.5117C229.772 37.5117 231.379 39.119 231.379 41.1043Z" fill="#5953F3"/>
</svg>
